<svg width="58" height="55" viewBox="0 0 58 55" fill="none" xmlns="http://www.w3.org/2000/svg">
<path d="M28.1941 30.2241C31.1795 30.2241 33.6074 27.7962 33.6074 24.8108C33.6074 21.8254 31.1795 19.3976 28.1941 19.3976C25.2087 19.3976 22.7808 21.8254 22.7808 24.8108C22.7808 27.7962 25.2087 30.2241 28.1941 30.2241Z" fill="#23A8E1"/>
<path d="M32.9515 30.2241C31.6803 31.3437 30.0175 32.0285 28.1941 32.0285C26.3708 32.0285 24.708 31.3437 23.4368 30.2241C21.9319 31.5476 20.9764 33.4811 20.9764 35.6374C20.9764 36.6334 21.7848 37.4418 22.7809 37.4418H33.6074C34.6034 37.4418 35.4118 36.6334 35.4118 35.6374C35.4118 33.4811 34.4564 31.5476 32.9515 30.2241Z" fill="#23A8E1"/>
<path d="M20.9764 0C20.3516 0 19.8486 0.502983 19.8486 1.12776V11.2776H36.5396V1.12776C36.5396 0.502983 36.0366 0 35.4118 0H20.9764ZM18.4953 11.7288V12.631C18.4953 13.3807 19.0989 13.9843 19.8486 13.9843H36.5396C37.2893 13.9843 37.8929 13.3807 37.8929 12.631V11.7288H18.4953Z" fill="#23A8E1"/>
<path fill-rule="evenodd" clip-rule="evenodd" d="M6.8118 19.3976H6.81206C9.16932 19.3976 11.0979 21.3261 11.0979 23.6834V31.5901H2.52594V23.6834C2.52594 21.3261 4.45453 19.3976 6.8118 19.3976ZM0.907971 31.9845H12.7159H12.7441V32.0127V34.1002V34.1284H12.7159H10.767V37.4418H9.68546L9.07052 34.1284H4.5536L3.93813 37.4418H2.85712V34.1284H0.907971H0.879779V34.1002V32.0127V31.9845H0.907971ZM11.5216 26.7368H12.3634C13.0523 26.7368 13.7049 27.3059 13.6159 27.9893L13.1461 31.5901H11.5216V26.7368ZM2.10254 26.7368H1.26076C0.571784 26.7368 -0.0810941 27.3059 0.00822211 27.9893L0.477725 31.5901H2.10254V26.7368Z" fill="#23A8E1"/>
<path d="M45.001 26.3068C45.0514 26.4233 45.171 26.502 45.3033 26.502H54.6936C54.8258 26.502 54.9423 26.4265 54.9959 26.3068L57.1718 21.3472C57.2631 21.1362 57.1057 20.9 56.8695 20.9H43.1273C42.8912 20.9 42.7337 21.1362 42.825 21.3472L45.001 26.3068Z" fill="#23A8E1"/>
<path d="M57.9559 33.6282L54.892 28.2655C54.8353 28.1647 54.7282 28.1049 54.6148 28.1049H45.3883C45.2749 28.1049 45.1679 28.1679 45.1112 28.2655L42.0409 33.6282C42.0126 33.6754 42 33.7321 42 33.7856V36.1002C42 36.541 42.359 36.9 42.7998 36.9H57.197C57.6379 36.9 57.9969 36.541 57.9969 36.1002V33.7856C57.9969 33.729 57.9811 33.6754 57.9559 33.6282ZM45.1994 36.1002C44.7585 36.1002 44.3995 35.7412 44.3995 35.3003C44.3995 34.8595 44.7585 34.5005 45.1994 34.5005C45.6402 34.5005 45.9992 34.8595 45.9992 35.3003C45.9992 35.7412 45.6402 36.1002 45.1994 36.1002ZM48.3987 36.1002C47.9579 36.1002 47.5989 35.7412 47.5989 35.3003C47.5989 34.8595 47.9579 34.5005 48.3987 34.5005C48.8396 34.5005 49.1986 34.8595 49.1986 35.3003C49.1986 35.7412 48.8396 36.1002 48.3987 36.1002ZM43.8422 33.7006L46.1252 29.7014H53.8654L56.1484 33.7006H43.8422Z" fill="#23A8E1"/>
<path d="M38.3948 46.3126L36.0809 42.5683C36.0178 42.4631 35.9126 42.4 35.7864 42.4H21.0825C20.9563 42.4 20.8511 42.4631 20.788 42.5683L18.4951 46.3126C18.3479 46.544 18.5161 46.8175 18.7896 46.8175H20.3462L20.5987 54.5376C20.5987 54.6848 20.7249 54.811 20.8932 54.811H21.9449C22.0922 54.811 22.2394 54.6848 22.2394 54.5376L22.4919 46.8175H23.2492L23.4174 51.824C23.4174 51.9712 23.5437 52.0974 23.7119 52.0974H24.4903C24.6375 52.0974 24.7848 51.9712 24.7848 51.824L24.953 46.8175H31.9369L32.1052 51.824C32.1052 51.9712 32.2314 52.0974 32.3997 52.0974H33.178C33.3252 52.0974 33.4725 51.9712 33.4725 51.824L33.6408 46.8175H34.3981L34.6505 54.5376C34.6505 54.6848 34.7767 54.811 34.945 54.811H35.9968C36.144 54.811 36.2913 54.6848 36.2913 54.5376L36.5437 46.8175H38.1003C38.3738 46.8175 38.521 46.544 38.3948 46.3126Z" fill="#23A8E1"/>
</svg>
