<svg width="24" height="24" viewBox="0 0 24 24" fill="none" xmlns="http://www.w3.org/2000/svg">
<path d="M22.4999 17.9999C22.3028 17.9999 22.1077 17.961 21.9256 17.8855C21.7436 17.81 21.5782 17.6994 21.4389 17.5599L13.7679 9.88893C13.5357 9.65672 13.2601 9.47251 12.9568 9.34683C12.6534 9.22115 12.3283 9.15647 11.9999 9.15647C11.6715 9.15647 11.3464 9.22115 11.043 9.34683C10.7397 9.47251 10.4641 9.65672 10.2319 9.88893L2.5699 17.5509C2.287 17.8242 1.90809 17.9754 1.5148 17.9719C1.1215 17.9685 0.745284 17.8108 0.467172 17.5327C0.18906 17.2545 0.0313064 16.8783 0.0278887 16.485C0.0244711 16.0917 0.175663 15.7128 0.4489 15.4299L8.1109 7.76794C9.14299 6.73776 10.5417 6.15918 11.9999 6.15918C13.4581 6.15918 14.8568 6.73776 15.8889 7.76794L23.5609 15.4399C23.7705 15.6498 23.9131 15.917 23.9709 16.2079C24.0286 16.4988 23.9988 16.8003 23.8853 17.0742C23.7717 17.3482 23.5795 17.5824 23.3329 17.7471C23.0864 17.9119 22.7965 17.9999 22.4999 17.9999Z" fill="white"/>
</svg>
