<svg width="24" height="24" viewBox="0 0 24 24" fill="none" xmlns="http://www.w3.org/2000/svg">
<g clip-path="url(#clip0_242_1322)">
<path d="M5.81103 7.58726L3.69022 8.20901C2.29666 8.61807 1.1406 9.59663 0.506924 10.9035C-0.116256 12.1926 -0.167113 13.6847 0.366815 15.0132C0.373957 15.0316 0.383161 15.049 0.390351 15.0674L2.14917 14.7801C3.80694 14.3483 5.32283 13.4903 6.54623 12.2912C6.95002 11.8958 7.59784 11.9027 7.99319 12.3065C8.3885 12.7103 8.38164 13.3581 7.97785 13.7535C6.47212 15.2232 4.60393 16.2679 2.56331 16.7813L1.36483 16.9797C2.05445 18.1004 2.90944 19.1106 3.90084 19.9759L6.00017 19.1967L7.4318 18.4809C8.90761 17.7392 10.1711 16.6352 11.1039 15.272L11.6346 14.4938C11.9397 14.0186 12.5723 13.8807 13.0476 14.1858C13.5228 14.491 13.6607 15.1235 13.3556 15.5988C13.3455 15.6146 13.3349 15.63 13.3239 15.6452L12.7942 16.4234C11.6658 18.0746 10.1362 19.4117 8.34905 20.3092L6.76404 21.0997L5.90201 21.4188C7.97948 22.6299 10.3424 23.2653 12.7471 23.2594H13.692C13.9034 23.2593 14.1097 23.1943 14.283 23.0733C16.4487 21.6014 18.2422 19.6458 19.5217 17.3612L8.3838 6.4256C7.57114 6.90546 6.70839 7.29496 5.81103 7.58726Z" fill="#1A454F"/>
<path d="M23.6969 1.04279C23.2927 0.640012 22.6388 0.640012 22.2346 1.04279L17.3631 5.91434L17.0358 5.59429C15.2548 3.85475 12.4808 3.64806 10.4617 5.10446C10.3676 5.17195 10.2745 5.22818 10.1794 5.29366L20.4328 15.3599C20.7591 14.4765 20.9988 13.5634 21.1486 12.6337C21.4059 10.9902 20.8523 9.32379 19.6628 8.16093L18.8447 7.35924L23.699 2.50505C24.1012 2.1003 24.1003 1.44644 23.6969 1.04279Z" fill="#1A454F"/>
</g>
<defs>
<clipPath id="clip0_242_1322">
<rect width="24" height="24" fill="white"/>
</clipPath>
</defs>
</svg>
