<svg width="58" height="58" viewBox="0 0 58 58" fill="none" xmlns="http://www.w3.org/2000/svg">
<rect x="0.5" y="0.5" width="57" height="57" rx="8.5" stroke="#23A8E1"/>
<path d="M38 21H34.9C34.4215 18.6736 32.3751 17.003 30 17H28C25.6248 17.003 23.5784 18.6736 23.1 21H20C19.4477 21 19 21.4477 19 22C19 22.5522 19.4477 23 20 23H21V36C21.0033 38.76 23.2399 40.9967 26 41H32C34.76 40.9967 36.9967 38.76 37 36V23H38C38.5523 23 39 22.5523 39 22C39 21.4477 38.5523 21 38 21ZM28 34C28 34.5523 27.5523 35 27 35C26.4477 35 26 34.5523 26 34V28C26 27.4477 26.4477 27 27 27C27.5522 27 28 27.4477 28 28V34H28ZM32 34C32 34.5523 31.5523 35 31 35C30.4477 35 30 34.5523 30 34V28C30 27.4477 30.4477 27 31 27C31.5523 27 32 27.4477 32 28V34ZM25.171 21C25.5963 19.8023 26.729 19.0015 28 19H30C31.271 19.0015 32.4037 19.8023 32.829 21H25.171Z" fill="#23A8E1"/>
</svg>
