<svg width="40" height="40" viewBox="0 0 40 40" fill="none" xmlns="http://www.w3.org/2000/svg">
<path d="M32 16C36.4113 16 40 12.4113 40 8C40 3.58867 36.4113 0 32 0C28.7967 0 26.0347 1.89667 24.758 4.62267L22.622 3.83333C22.6473 3.668 22.6667 3.50133 22.6667 3.33333C22.6667 1.49533 21.1713 0 19.3333 0C17.4953 0 16 1.49533 16 3.33333C16 5.17133 17.4953 6.66667 19.3333 6.66667C20.4973 6.66667 21.56 6.04733 22.158 5.084L24.296 5.87333C24.108 6.552 24 7.26267 24 8C24 8.87333 24.1453 9.712 24.4053 10.4993L17.0733 13.6067C15.7307 11.0687 13.066 9.33333 10 9.33333C9.00667 9.33333 8.05867 9.524 7.18 9.856L5.33667 5.982C6.15733 5.36533 6.66667 4.388 6.66667 3.33333C6.66667 1.49533 5.17133 0 3.33333 0C1.49533 0 0 1.49533 0 3.33333C0 5.17133 1.49533 6.66667 3.33333 6.66667C3.60733 6.66667 3.878 6.63 4.13733 6.56467L5.97667 10.43C3.60267 11.8187 2 14.3893 2 17.3333C2 20.0987 3.41067 22.5393 5.54933 23.9767L4.33467 26.16C4.014 26.0587 3.678 26 3.33333 26C1.49533 26 0 27.4953 0 29.3333C0 31.1713 1.49533 32.6667 3.33333 32.6667C5.17133 32.6667 6.66667 31.1713 6.66667 29.3333C6.66667 28.3493 6.22533 27.4327 5.49867 26.8113L6.71733 24.6207C7.72 25.0747 8.82933 25.3333 10 25.3333C11.8293 25.3333 13.512 24.7093 14.8613 23.672L17.4853 26.5587C16.1547 27.988 15.3333 29.8973 15.3333 32C15.3333 32.408 15.374 32.8053 15.4327 33.1967L12.3493 33.928C11.8127 32.7687 10.6547 32 9.33333 32C7.49533 32 6 33.4953 6 35.3333C6 37.1713 7.49533 38.6667 9.33333 38.6667C11.1713 38.6667 12.6667 37.1713 12.6667 35.3333C12.6667 35.2973 12.6613 35.2607 12.66 35.2247L15.7367 34.4947C16.788 37.6873 19.7933 40 23.3333 40C27.7447 40 31.3333 36.4113 31.3333 32C31.3333 30.632 30.9873 29.344 30.3793 28.2173L34.2973 25.67C34.9153 26.3 35.76 26.6667 36.6667 26.6667C38.5047 26.6667 40 25.1713 40 23.3333C40 21.4953 38.5047 20 36.6667 20C34.8287 20 33.3333 21.4953 33.3333 23.3333C33.3333 23.7527 33.4207 24.1633 33.5733 24.55L29.646 27.1033C28.8607 26.0933 27.8407 25.278 26.6667 24.7367L29.9207 15.716C30.5847 15.8953 31.28 16 32 16ZM32 1.33333C35.676 1.33333 38.6667 4.324 38.6667 8C38.6667 9.66667 38.0473 11.1887 37.0327 12.3587C36.57 11.1273 35.6013 10.1453 34.38 9.662C34.9687 9.06067 35.3333 8.24067 35.3333 7.33333C35.3333 5.49267 33.8407 4 32 4C30.1593 4 28.6667 5.49267 28.6667 7.33333C28.6667 8.24067 29.0313 9.06067 29.6193 9.662C28.3987 10.1453 27.43 11.1273 26.9667 12.3587C25.9527 11.1887 25.3333 9.66667 25.3333 8C25.3333 4.324 28.324 1.33333 32 1.33333ZM3.33333 17.3333C3.33333 13.6573 6.324 10.6667 10 10.6667C13.676 10.6667 16.6667 13.6573 16.6667 17.3333C16.6667 19 16.0473 20.522 15.0327 21.692C14.57 20.4607 13.6013 19.4787 12.38 18.9953C12.9687 18.394 13.3333 17.574 13.3333 16.6667C13.3333 14.826 11.8407 13.3333 10 13.3333C8.15933 13.3333 6.66667 14.826 6.66667 16.6667C6.66667 17.574 7.03133 18.394 7.61933 18.9953C6.39867 19.4787 5.43 20.4607 4.96667 21.692C3.95267 20.522 3.33333 19 3.33333 17.3333ZM30 32C30 33.6667 29.3807 35.1887 28.366 36.3587C27.9033 35.1273 26.9347 34.1453 25.7133 33.662C26.302 33.0607 26.6667 32.2407 26.6667 31.3333C26.6667 29.4927 25.174 28 23.3333 28C21.4927 28 20 29.4927 20 31.3333C20 32.2407 20.3647 33.0607 20.9527 33.662C19.732 34.1453 18.7633 35.1273 18.3 36.3587C17.286 35.1887 16.6667 33.6667 16.6667 32C16.6667 28.324 19.6573 25.3333 23.3333 25.3333C27.0093 25.3333 30 28.324 30 32ZM25.4127 24.284C24.7487 24.1047 24.0533 24 23.3333 24C21.504 24 19.8213 24.624 18.472 25.6613L15.848 22.7747C17.1787 21.3453 18 19.436 18 17.3333C18 16.46 17.8547 15.6213 17.5947 14.834L24.9267 11.7267C25.748 13.2793 27.066 14.5253 28.6673 15.2633L25.4127 24.284Z" fill="#F8F9FA"/>
</svg>
