<svg width="48" height="48" viewBox="0 0 48 48" fill="none" xmlns="http://www.w3.org/2000/svg">
<path d="M38.4 19.2C43.6936 19.2 48 14.8936 48 9.6C48 4.3064 43.6936 0 38.4 0C34.556 0 31.2416 2.276 29.7096 5.5472L27.1464 4.6C27.1768 4.4016 27.2 4.2016 27.2 4C27.2 1.7944 25.4056 0 23.2 0C20.9944 0 19.2 1.7944 19.2 4C19.2 6.2056 20.9944 8 23.2 8C24.5968 8 25.872 7.2568 26.5896 6.1008L29.1552 7.048C28.9296 7.8624 28.8 8.7152 28.8 9.6C28.8 10.648 28.9744 11.6544 29.2864 12.5992L20.488 16.328C18.8768 13.2824 15.6792 11.2 12 11.2C10.808 11.2 9.6704 11.4288 8.616 11.8272L6.404 7.1784C7.3888 6.4384 8 5.2656 8 4C8 1.7944 6.2056 0 4 0C1.7944 0 0 1.7944 0 4C0 6.2056 1.7944 8 4 8C4.3288 8 4.6536 7.956 4.9648 7.8776L7.172 12.516C4.3232 14.1824 2.4 17.2672 2.4 20.8C2.4 24.1184 4.0928 27.0472 6.6592 28.772L5.2016 31.392C4.8168 31.2704 4.4136 31.2 4 31.2C1.7944 31.2 0 32.9944 0 35.2C0 37.4056 1.7944 39.2 4 39.2C6.2056 39.2 8 37.4056 8 35.2C8 34.0192 7.4704 32.9192 6.5984 32.1736L8.0608 29.5448C9.264 30.0896 10.5952 30.4 12 30.4C14.1952 30.4 16.2144 29.6512 17.8336 28.4064L20.9824 31.8704C19.3856 33.5856 18.4 35.8768 18.4 38.4C18.4 38.8896 18.4488 39.3664 18.5192 39.836L14.8192 40.7136C14.1752 39.3224 12.7856 38.4 11.2 38.4C8.9944 38.4 7.2 40.1944 7.2 42.4C7.2 44.6056 8.9944 46.4 11.2 46.4C13.4056 46.4 15.2 44.6056 15.2 42.4C15.2 42.3568 15.1936 42.3128 15.192 42.2696L18.884 41.3936C20.1456 45.2248 23.752 48 28 48C33.2936 48 37.6 43.6936 37.6 38.4C37.6 36.7584 37.1848 35.2128 36.4552 33.8608L41.1568 30.804C41.8984 31.56 42.912 32 44 32C46.2056 32 48 30.2056 48 28C48 25.7944 46.2056 24 44 24C41.7944 24 40 25.7944 40 28C40 28.5032 40.1048 28.996 40.288 29.46L35.5752 32.524C34.6328 31.312 33.4088 30.3336 32 29.684L35.9048 18.8592C36.7016 19.0744 37.536 19.2 38.4 19.2ZM38.4 1.6C42.8112 1.6 46.4 5.1888 46.4 9.6C46.4 11.6 45.6568 13.4264 44.4392 14.8304C43.884 13.3528 42.7216 12.1744 41.256 11.5944C41.9624 10.8728 42.4 9.8888 42.4 8.8C42.4 6.5912 40.6088 4.8 38.4 4.8C36.1912 4.8 34.4 6.5912 34.4 8.8C34.4 9.8888 34.8376 10.8728 35.5432 11.5944C34.0784 12.1744 32.916 13.3528 32.36 14.8304C31.1432 13.4264 30.4 11.6 30.4 9.6C30.4 5.1888 33.9888 1.6 38.4 1.6ZM4 20.8C4 16.3888 7.5888 12.8 12 12.8C16.4112 12.8 20 16.3888 20 20.8C20 22.8 19.2568 24.6264 18.0392 26.0304C17.484 24.5528 16.3216 23.3744 14.856 22.7944C15.5624 22.0728 16 21.0888 16 20C16 17.7912 14.2088 16 12 16C9.7912 16 8 17.7912 8 20C8 21.0888 8.4376 22.0728 9.1432 22.7944C7.6784 23.3744 6.516 24.5528 5.96 26.0304C4.7432 24.6264 4 22.8 4 20.8ZM36 38.4C36 40.4 35.2568 42.2264 34.0392 43.6304C33.484 42.1528 32.3216 40.9744 30.856 40.3944C31.5624 39.6728 32 38.6888 32 37.6C32 35.3912 30.2088 33.6 28 33.6C25.7912 33.6 24 35.3912 24 37.6C24 38.6888 24.4376 39.6728 25.1432 40.3944C23.6784 40.9744 22.516 42.1528 21.96 43.6304C20.7432 42.2264 20 40.4 20 38.4C20 33.9888 23.5888 30.4 28 30.4C32.4112 30.4 36 33.9888 36 38.4ZM30.4952 29.1408C29.6984 28.9256 28.864 28.8 28 28.8C25.8048 28.8 23.7856 29.5488 22.1664 30.7936L19.0176 27.3296C20.6144 25.6144 21.6 23.3232 21.6 20.8C21.6 19.752 21.4256 18.7456 21.1136 17.8008L29.912 14.072C30.8976 15.9352 32.4792 17.4304 34.4008 18.316L30.4952 29.1408Z" fill="#23A8E1"/>
</svg>
