<svg width="40" height="40" viewBox="0 0 40 40" fill="none" xmlns="http://www.w3.org/2000/svg">
<path d="M11.6667 10H38.3333C38.7754 10 39.1993 9.8244 39.5118 9.51184C39.8244 9.19928 40 8.77536 40 8.33333C40 7.89131 39.8244 7.46739 39.5118 7.15483C39.1993 6.84227 38.7754 6.66667 38.3333 6.66667H11.6667C11.2246 6.66667 10.8007 6.84227 10.4882 7.15483C10.1756 7.46739 10 7.89131 10 8.33333C10 8.77536 10.1756 9.19928 10.4882 9.51184C10.8007 9.8244 11.2246 10 11.6667 10Z" fill="#23A8E1"/>
<path d="M38.3333 18.3333H11.6667C11.2246 18.3333 10.8007 18.5089 10.4882 18.8215C10.1756 19.134 10 19.558 10 20C10 20.442 10.1756 20.8659 10.4882 21.1785C10.8007 21.4911 11.2246 21.6667 11.6667 21.6667H38.3333C38.7754 21.6667 39.1993 21.4911 39.5118 21.1785C39.8244 20.8659 40 20.442 40 20C40 19.558 39.8244 19.134 39.5118 18.8215C39.1993 18.5089 38.7754 18.3333 38.3333 18.3333Z" fill="#23A8E1"/>
<path d="M38.3333 30H11.6667C11.2246 30 10.8007 30.1756 10.4882 30.4882C10.1756 30.8007 10 31.2246 10 31.6667C10 32.1087 10.1756 32.5326 10.4882 32.8452C10.8007 33.1578 11.2246 33.3334 11.6667 33.3334H38.3333C38.7754 33.3334 39.1993 33.1578 39.5118 32.8452C39.8244 32.5326 40 32.1087 40 31.6667C40 31.2246 39.8244 30.8007 39.5118 30.4882C39.1993 30.1756 38.7754 30 38.3333 30Z" fill="#23A8E1"/>
<path d="M3.33333 11.6667C5.17428 11.6667 6.66667 10.1743 6.66667 8.33333C6.66667 6.49238 5.17428 5 3.33333 5C1.49238 5 0 6.49238 0 8.33333C0 10.1743 1.49238 11.6667 3.33333 11.6667Z" fill="#23A8E1"/>
<path d="M3.33333 23.3334C5.17428 23.3334 6.66667 21.841 6.66667 20C6.66667 18.1591 5.17428 16.6667 3.33333 16.6667C1.49238 16.6667 0 18.1591 0 20C0 21.841 1.49238 23.3334 3.33333 23.3334Z" fill="#23A8E1"/>
<path d="M3.33333 35C5.17428 35 6.66667 33.5076 6.66667 31.6667C6.66667 29.8257 5.17428 28.3333 3.33333 28.3333C1.49238 28.3333 0 29.8257 0 31.6667C0 33.5076 1.49238 35 3.33333 35Z" fill="#23A8E1"/>
</svg>
