<svg width="37" height="40" viewBox="0 0 37 40" fill="none" xmlns="http://www.w3.org/2000/svg">
<path d="M13.6709 0C6.14828 0 0 6.14828 0 13.6709C0 20.2532 10.4882 35.5154 13.5986 40C16.7089 35.5877 27.1971 20.2532 27.1971 13.6709C27.2694 6.14828 21.1935 0 13.6709 0ZM13.6709 22.6401C8.75226 22.6401 4.70163 18.6618 4.70163 13.6709C4.70163 8.67993 8.67993 4.70163 13.6709 4.70163C18.6618 4.70163 22.6401 8.67993 22.6401 13.6709C22.6401 18.6618 18.5895 22.6401 13.6709 22.6401Z" fill="#F8F9FA"/>
<path d="M13.6709 6.87161C9.90956 6.87161 6.87158 9.90959 6.87158 13.6709C6.87158 17.4322 9.90956 20.4702 13.6709 20.4702C17.4322 20.4702 20.4701 17.4322 20.4701 13.6709C20.4701 9.90959 17.4322 6.87161 13.6709 6.87161Z" fill="#F8F9FA"/>
<path d="M31.0308 15.1899C31.0308 13.7432 30.3798 12.4412 29.2948 11.5732C29.3672 12.2966 29.4395 13.0199 29.4395 13.7432C29.4395 15.3345 28.9332 17.4322 28.0652 19.6022C29.8012 18.8788 31.0308 17.1429 31.0308 15.1899Z" fill="#F8F9FA"/>
<path d="M27.1249 5.3526C27.7758 6.36526 28.2822 7.45025 28.6438 8.60757C31.3925 9.5479 33.2008 12.1519 33.2008 15.1175C33.2008 18.6618 30.4522 21.6275 26.9802 21.9891C25.8952 24.3761 24.5209 26.9078 23.0742 29.3671C24.3762 31.3201 25.5335 33.056 26.2569 34.141C29.7288 29.3671 36.1664 19.3851 36.1664 15.1899C36.1664 9.98189 32.1881 5.7866 27.1249 5.3526Z" fill="#F8F9FA"/>
</svg>
