<svg width="40" height="45" viewBox="0 0 40 45" fill="none" xmlns="http://www.w3.org/2000/svg">
<path d="M15.12 0C6.8 0 0 6.8 0 15.12C0 22.4 11.6 39.28 15.04 44.24C18.48 39.36 30.08 22.4 30.08 15.12C30.16 6.8 23.44 0 15.12 0ZM15.12 25.04C9.68 25.04 5.2 20.64 5.2 15.12C5.2 9.6 9.6 5.2 15.12 5.2C20.64 5.2 25.04 9.6 25.04 15.12C25.04 20.64 20.56 25.04 15.12 25.04Z" fill="#23A8E1"/>
<path d="M15.12 7.60001C10.96 7.60001 7.59998 10.96 7.59998 15.12C7.59998 19.28 10.96 22.64 15.12 22.64C19.28 22.64 22.64 19.28 22.64 15.12C22.64 10.96 19.28 7.60001 15.12 7.60001Z" fill="#23A8E1"/>
<path d="M34.32 16.8C34.32 15.2 33.6 13.76 32.4 12.8C32.48 13.6 32.56 14.4 32.56 15.2C32.56 16.96 32 19.28 31.04 21.68C32.96 20.88 34.32 18.96 34.32 16.8Z" fill="#23A8E1"/>
<path d="M30 5.91998C30.72 7.03998 31.28 8.23998 31.68 9.51998C34.72 10.56 36.72 13.44 36.72 16.72C36.72 20.64 33.68 23.92 29.84 24.32C28.64 26.96 27.12 29.76 25.52 32.48C26.96 34.64 28.24 36.56 29.04 37.76C32.88 32.48 40 21.44 40 16.8C40 11.04 35.6 6.39998 30 5.91998Z" fill="#23A8E1"/>
</svg>
