<svg width="36" height="36" viewBox="0 0 36 36" fill="none" xmlns="http://www.w3.org/2000/svg">
<path d="M5.99998 0H10.5C13.8137 0 16.5 2.68629 16.5 5.99998V10.5C16.5 13.8137 13.8137 16.5 10.5 16.5H5.99998C2.68629 16.5 0 13.8137 0 10.5V5.99998C0 2.68629 2.68629 0 5.99998 0Z" fill="#23A8E1"/>
<path d="M25.4998 0H29.9998C33.3135 0 35.9998 2.68629 35.9998 5.99998V10.5C35.9998 13.8137 33.3135 16.5 29.9998 16.5H25.4998C22.1861 16.5 19.4998 13.8137 19.4998 10.5V5.99998C19.4997 2.68629 22.186 0 25.4998 0Z" fill="#23A8E1"/>
<path d="M5.99998 19.5H10.5C13.8137 19.5 16.5 22.1863 16.5 25.5V30C16.5 33.3137 13.8137 36 10.5 36H5.99998C2.68629 36 0 33.3137 0 30.0001V25.5001C0 22.1863 2.68629 19.5 5.99998 19.5Z" fill="#23A8E1"/>
<path d="M25.4998 19.5H29.9998C33.3135 19.5 35.9998 22.1863 35.9998 25.5V30C35.9998 33.3138 33.3135 36 29.9998 36H25.4998C22.1861 36 19.4998 33.3138 19.4998 30.0001V25.5001C19.4997 22.1863 22.186 19.5 25.4998 19.5Z" fill="#23A8E1"/>
</svg>
