<svg width="49" height="48" viewBox="0 0 49 48" fill="none" xmlns="http://www.w3.org/2000/svg">
<path d="M23.4557 0C19.3363 0.0933983 15.3103 1.24602 11.7654 3.34684C8.22045 5.44765 5.27606 8.42594 3.2157 11.9949C1.15534 15.5638 0.0484313 19.6032 0.00155354 23.7241C-0.0453242 27.8449 0.969411 31.9084 2.94805 35.5233L23.4557 23.6816V0Z" fill="#F8F9FA"/>
<path fill-rule="evenodd" clip-rule="evenodd" d="M12.4126 9.29816H12.4128C14.3724 9.29816 15.9756 10.9014 15.9756 12.861V19.4337H8.84979V12.861C8.84979 10.9014 10.453 9.29816 12.4126 9.29816ZM7.50479 19.7616H17.3206H17.344V19.785V21.5203V21.5438H17.3206H15.7005V24.2982H14.8014L14.2902 21.5438H10.5354L10.0237 24.2982H9.1251V21.5438H7.50479H7.48135V21.5203V19.785V19.7616H7.50479ZM16.3278 15.3992H17.0275C17.6003 15.3992 18.1428 15.8723 18.0688 16.4404L17.6783 19.4337H16.3278V15.3992ZM8.49782 15.3992H7.79805C7.22532 15.3992 6.68259 15.8723 6.75683 16.4404L7.14713 19.4337H8.49782V15.3992Z" fill="#48B6E6"/>
<path d="M24.0012 24.6276L3.49353 36.4674C5.63425 39.9886 8.64537 42.8992 12.2369 44.9191C15.8285 46.9389 19.8795 48 24 48C28.1204 48 32.1715 46.9389 35.763 44.9191C39.3546 42.8992 42.3657 39.9886 44.5064 36.4674L24.0012 24.6276ZM17.1405 31.8836H27.2696L31.4603 35.6447C31.5623 35.7362 31.6943 35.787 31.8313 35.7874H33.7486C34.2076 35.7872 34.6622 35.8775 35.0864 36.0531C35.5105 36.2286 35.896 36.486 36.2207 36.8105C36.5454 37.1351 36.803 37.5203 36.9788 37.9444C37.1546 38.3685 37.2452 38.8231 37.2453 39.2822V40.0921C37.2453 40.3238 37.1532 40.546 36.9893 40.7098C36.8255 40.8737 36.6033 40.9656 36.3717 40.9657H35.4576C35.5282 40.5849 35.5142 40.1931 35.4165 39.8183C35.3188 39.4436 35.1398 39.0949 34.8922 38.7971C34.6446 38.4993 34.3345 38.2596 33.9839 38.0952C33.6333 37.9307 33.2508 37.8454 32.8635 37.8454C32.4763 37.8454 32.0938 37.9307 31.7432 38.0952C31.3925 38.2596 31.0824 38.4993 30.8348 38.7971C30.5872 39.0949 30.4083 39.4436 30.3105 39.8183C30.2128 40.1931 30.1988 40.5849 30.2695 40.9657H18.7233C18.7941 40.5849 18.7803 40.1932 18.6827 39.8183C18.5852 39.4435 18.4063 39.0948 18.1589 38.7969C17.9114 38.4989 17.6014 38.2591 17.2509 38.0945C16.9003 37.9299 16.5178 37.8445 16.1306 37.8443C15.7433 37.8442 15.3608 37.9292 15.0101 38.0935C14.6594 38.2578 14.3492 38.4974 14.1015 38.7951C13.8538 39.0928 13.6746 39.4415 13.5768 39.8162C13.4789 40.191 13.4647 40.5827 13.5352 40.9635C13.323 40.9696 13.1162 40.8956 12.9559 40.7563C12.7957 40.6169 12.6937 40.4223 12.6702 40.2112V38.7516C12.7271 37.6813 13.0281 36.6383 13.5501 35.7022L15.1354 33.0256C15.3417 32.6775 15.6351 32.3892 15.9867 32.1889C16.3382 31.9886 16.7359 31.8834 17.1405 31.8835V31.8836ZM16.0643 38.2211C16.3668 38.2122 16.6681 38.264 16.9501 38.3736C17.2322 38.4832 17.4895 38.6483 17.7066 38.8592C17.9238 39.07 18.0964 39.3222 18.2143 39.601C18.3322 39.8798 18.393 40.1794 18.393 40.482C18.393 41.0823 18.1546 41.6579 17.7303 42.0823C17.306 42.5067 16.7304 42.7451 16.1303 42.7451C15.5302 42.7451 14.9547 42.5067 14.5303 42.0823C14.106 41.6579 13.8676 41.0823 13.8676 40.482C13.8677 39.8934 14.0972 39.328 14.5073 38.9058C14.9175 38.4837 15.476 38.2381 16.0643 38.2211ZM32.8007 38.2211C33.1032 38.2122 33.4044 38.264 33.6865 38.3736C33.9686 38.4832 34.2258 38.6483 34.443 38.8592C34.6601 39.07 34.8327 39.3222 34.9506 39.601C35.0686 39.8798 35.1293 40.1794 35.1294 40.482C35.1294 41.0823 34.891 41.6579 34.4666 42.0823C34.0423 42.5067 33.4667 42.7451 32.8666 42.7451C32.2665 42.7451 31.691 42.5067 31.2666 42.0823C30.8423 41.6579 30.6039 41.0823 30.6039 40.482C30.604 39.8934 30.8335 39.328 31.2437 38.9058C31.6538 38.4837 32.2124 38.2381 32.8007 38.2211Z" fill="#F8F9FA"/>
<path d="M24.5482 0V23.6816L45.0534 35.5233C47.032 31.9086 48.0467 27.8452 48 23.7246C47.9532 19.6039 46.8465 15.5647 44.7864 11.9959C42.7264 8.42702 39.7823 5.4487 36.2377 3.34772C32.6932 1.24673 28.6675 0.0938133 24.5482 0Z" fill="#F8F9FA"/>
<path d="M28.3327 12H42.1687C42.4883 12 42.75 12.2628 42.75 12.5827V21.279C42.75 21.6 42.4883 21.8617 42.1687 21.8617H37.6855V23.1728L39.0933 24.043H35.25H31.4065L32.8143 23.1728V21.8617H28.3327C28.0117 21.8617 27.75 21.6 27.75 21.279V12.5827C27.75 12.2628 28.0117 12 28.3327 12Z" fill="#48B6E6"/>
<path d="M33.9831 40.4828C33.9843 40.3353 33.9563 40.1892 33.9008 40.0527C33.8452 39.9161 33.7631 39.792 33.6593 39.6873C33.5555 39.5826 33.432 39.4995 33.2959 39.4428C33.1598 39.3861 33.0138 39.3569 32.8664 39.3569C32.719 39.3569 32.573 39.3861 32.4369 39.4428C32.3008 39.4995 32.1773 39.5826 32.0735 39.6873C31.9697 39.792 31.8876 39.9161 31.832 40.0527C31.7765 40.1892 31.7485 40.3353 31.7497 40.4828C31.7485 40.6302 31.7765 40.7764 31.832 40.913C31.8876 41.0495 31.9697 41.1737 32.0735 41.2784C32.1773 41.383 32.3008 41.4661 32.4369 41.5228C32.573 41.5795 32.719 41.6088 32.8664 41.6088C33.0138 41.6088 33.1598 41.5795 33.2959 41.5228C33.432 41.4661 33.5555 41.383 33.6593 41.2784C33.7631 41.1737 33.8452 41.0495 33.9008 40.913C33.9563 40.7764 33.9843 40.6302 33.9831 40.4828Z" fill="#F8F9FA"/>
<path d="M17.2468 40.4828C17.248 40.3353 17.22 40.1892 17.1644 40.0527C17.1089 39.9161 17.0268 39.792 16.923 39.6873C16.8192 39.5826 16.6956 39.4995 16.5596 39.4428C16.4235 39.3861 16.2775 39.3569 16.1301 39.3569C15.9826 39.3569 15.8367 39.3861 15.7006 39.4428C15.5645 39.4995 15.441 39.5826 15.3372 39.6873C15.2334 39.792 15.1513 39.9161 15.0957 40.0527C15.0401 40.1892 15.0121 40.3353 15.0133 40.4828C15.0121 40.6302 15.0401 40.7764 15.0957 40.913C15.1513 41.0495 15.2334 41.1737 15.3372 41.2784C15.441 41.383 15.5645 41.4661 15.7006 41.5228C15.8367 41.5795 15.9826 41.6088 16.1301 41.6088C16.2775 41.6088 16.4235 41.5795 16.5596 41.5228C16.6956 41.4661 16.8192 41.383 16.923 41.2784C17.0268 41.1737 17.1089 41.0495 17.1644 40.913C17.22 40.7764 17.248 40.6302 17.2468 40.4828Z" fill="#F8F9FA"/>
<path d="M16.2523 35.0687L20.3585 35.3077C20.3823 35.3092 20.4062 35.3058 20.4286 35.2977C20.451 35.2896 20.4716 35.277 20.489 35.2607C20.5063 35.2443 20.5202 35.2246 20.5297 35.2027C20.5391 35.1808 20.544 35.1572 20.544 35.1333V33.0498H17.8175C17.6152 33.0498 17.4164 33.1024 17.2407 33.2025C17.0649 33.3027 16.9183 33.4468 16.8151 33.6208L16.113 34.8049C16.0977 34.8307 16.0893 34.86 16.0887 34.89C16.088 34.92 16.095 34.9496 16.1091 34.9761C16.1232 35.0025 16.1438 35.0249 16.1691 35.0411C16.1943 35.0573 16.2232 35.0667 16.2532 35.0684L16.2523 35.0687Z" fill="#F8F9FA"/>
<path d="M21.5814 35.3792L28.5329 35.7845C28.5692 35.7869 28.6053 35.7778 28.6362 35.7587C28.6671 35.7396 28.6913 35.7112 28.7054 35.6777C28.7195 35.6441 28.7227 35.6071 28.7147 35.5716C28.7067 35.5361 28.6878 35.5041 28.6607 35.4799L26.4499 33.4967C26.1292 33.209 25.7135 33.0499 25.2827 33.0499H21.4177V35.2048C21.4177 35.2495 21.4348 35.2923 21.4655 35.3247C21.4962 35.3572 21.5381 35.3767 21.5826 35.3792H21.5814Z" fill="#F8F9FA"/>
</svg>
