<svg width="65" height="64" viewBox="0 0 65 64" fill="none" xmlns="http://www.w3.org/2000/svg">
<path d="M31.2743 0C25.7817 0.124531 20.4137 1.66136 15.6872 4.46245C10.9606 7.26354 7.03474 11.2346 4.2876 15.9932C1.54046 20.7517 0.064575 26.1376 0.00207139 31.6321C-0.0604323 37.1266 1.29255 42.5445 3.93073 47.3644L31.2743 31.5754V0Z" fill="#23A8E1"/>
<path fill-rule="evenodd" clip-rule="evenodd" d="M16.5501 12.3976H16.5504C19.1632 12.3976 21.3008 14.5352 21.3008 17.1479V25.9116H11.7997V17.1479C11.7997 14.5352 13.9373 12.3976 16.5501 12.3976ZM10.0064 26.3488H23.0941H23.1254V26.3801V28.6938V28.725H23.0941H20.934V32.3976H19.7352L19.0536 28.725H14.0471L13.365 32.3976H12.1668V28.725H10.0064H9.97514V28.6938V26.3801V26.3488H10.0064ZM21.7704 20.5322H22.7034C23.467 20.5322 24.1904 21.163 24.0917 21.9205L23.571 25.9116H21.7704V20.5322ZM11.3304 20.5322H10.3974C9.63376 20.5322 8.91012 21.163 9.00911 21.9205L9.5295 25.9116H11.3304V20.5322Z" fill="#F6FCFE"/>
<path d="M32.0015 32.8369L4.6579 48.6231C7.51219 53.3181 11.527 57.1989 16.3158 59.8921C21.1045 62.5852 26.5059 64 31.9998 64C37.4938 64 42.8951 62.5852 47.6839 59.8921C52.4727 57.1989 56.4875 53.3181 59.3418 48.6231L32.0015 32.8369ZM22.8538 42.5115H36.3593L41.9469 47.5263C42.0829 47.6482 42.259 47.716 42.4416 47.7165H44.9979C45.61 47.7163 46.2161 47.8367 46.7817 48.0708C47.3472 48.3048 47.8612 48.648 48.2941 49.0807C48.727 49.5134 49.0705 50.027 49.3049 50.5925C49.5394 51.158 49.6601 51.7642 49.6603 52.3763V53.4561C49.6602 53.765 49.5374 54.0613 49.319 54.2798C49.1005 54.4982 48.8043 54.6208 48.4954 54.6209H47.2766C47.3708 54.1131 47.3522 53.5908 47.2219 53.0911C47.0916 52.5914 46.853 52.1266 46.5228 51.7295C46.1927 51.3324 45.7792 51.0128 45.3118 50.7935C44.8443 50.5742 44.3343 50.4605 43.8179 50.4605C43.3016 50.4605 42.7915 50.5742 42.3241 50.7935C41.8566 51.0128 41.4431 51.3324 41.113 51.7295C40.7829 52.1266 40.5442 52.5914 40.4139 53.0911C40.2836 53.5908 40.265 54.1131 40.3592 54.6209H24.9642C25.0587 54.1132 25.0402 53.5909 24.9102 53.0911C24.7801 52.5913 24.5417 52.1264 24.2117 51.7291C23.8817 51.3319 23.4684 51.0122 23.001 50.7927C22.5336 50.5732 22.0237 50.4593 21.5073 50.4591C20.9909 50.4589 20.4809 50.5722 20.0133 50.7913C19.5457 51.0105 19.1321 51.3298 18.8018 51.7268C18.4715 52.1238 18.2327 52.5886 18.1022 53.0883C17.9717 53.5879 17.9528 54.1102 18.0469 54.618C17.7638 54.6261 17.4881 54.5275 17.2744 54.3417C17.0608 54.1559 16.9248 53.8964 16.8935 53.615V51.6687C16.9693 50.2417 17.3706 48.851 18.0666 47.603L20.1804 44.0342C20.4555 43.5701 20.8466 43.1855 21.3154 42.9185C21.7841 42.6515 22.3143 42.5112 22.8538 42.5113V42.5115ZM21.419 50.9615C21.8223 50.9496 22.2239 51.0187 22.6001 51.1649C22.9762 51.311 23.3192 51.5311 23.6087 51.8122C23.8982 52.0933 24.1284 52.4297 24.2856 52.8013C24.4428 53.173 24.5238 53.5725 24.5239 53.9761C24.5239 54.7763 24.206 55.5438 23.6403 56.1097C23.0745 56.6756 22.3071 56.9935 21.5069 56.9935C20.7068 56.9935 19.9394 56.6756 19.3736 56.1097C18.8078 55.5438 18.4899 54.7763 18.4899 53.9761C18.4901 53.1912 18.7961 52.4373 19.343 51.8745C19.8898 51.3116 20.6346 50.9841 21.419 50.9615ZM43.7341 50.9615C44.1374 50.9496 44.539 51.0187 44.9152 51.1649C45.2913 51.311 45.6343 51.5311 45.9238 51.8122C46.2133 52.0933 46.4435 52.4297 46.6007 52.8013C46.7579 53.173 46.839 53.5725 46.839 53.9761C46.839 54.7763 46.5212 55.5438 45.9554 56.1097C45.3896 56.6756 44.6222 56.9935 43.822 56.9935C43.0219 56.9935 42.2545 56.6756 41.6887 56.1097C41.1229 55.5438 40.805 54.7763 40.805 53.9761C40.8052 53.1912 41.1112 52.4373 41.6581 51.8745C42.205 51.3116 42.9497 50.9841 43.7341 50.9615Z" fill="#23A8E1"/>
<path d="M32.731 0V31.5754L60.0713 47.3644C62.7093 42.5447 64.0623 37.127 64 31.6328C63.9376 26.1386 62.462 20.753 59.7152 15.9945C56.9685 11.236 53.0431 7.26494 48.317 4.46362C43.5909 1.6623 38.2233 0.125084 32.731 0Z" fill="#23A8E1"/>
<path d="M37.7769 16H56.2249C56.6511 16 57 16.3504 57 16.7769V28.372C57 28.8 56.6511 29.1489 56.2249 29.1489H50.2473V30.8971L52.1244 32.0573H47H41.8753L43.7524 30.8971V29.1489H37.7769C37.3489 29.1489 37 28.8 37 28.372V16.7769C37 16.3504 37.3489 16 37.7769 16Z" fill="#F6FCFE"/>
<path d="M45.3109 53.977C45.3125 53.7805 45.2752 53.5856 45.2011 53.4036C45.1269 53.2215 45.0175 53.0559 44.8791 52.9164C44.7407 52.7768 44.576 52.666 44.3945 52.5904C44.2131 52.5148 44.0185 52.4758 43.8219 52.4758C43.6253 52.4758 43.4307 52.5148 43.2493 52.5904C43.0678 52.666 42.9031 52.7768 42.7647 52.9164C42.6263 53.0559 42.5169 53.2215 42.4428 53.4036C42.3687 53.5856 42.3313 53.7805 42.3329 53.977C42.3313 54.1736 42.3687 54.3686 42.4428 54.5506C42.5169 54.7327 42.6263 54.8983 42.7647 55.0378C42.9031 55.1774 43.0678 55.2882 43.2493 55.3638C43.4307 55.4394 43.6253 55.4784 43.8219 55.4784C44.0185 55.4784 44.2131 55.4394 44.3945 55.3638C44.576 55.2882 44.7407 55.1774 44.8791 55.0378C45.0175 54.8983 45.1269 54.7327 45.2011 54.5506C45.2752 54.3686 45.3125 54.1736 45.3109 53.977Z" fill="#23A8E1"/>
<path d="M22.9957 53.977C22.9973 53.7805 22.96 53.5856 22.8859 53.4036C22.8118 53.2215 22.7023 53.0559 22.5639 52.9164C22.4255 52.7768 22.2608 52.666 22.0794 52.5904C21.8979 52.5148 21.7033 52.4758 21.5067 52.4758C21.3102 52.4758 21.1155 52.5148 20.9341 52.5904C20.7526 52.666 20.588 52.7768 20.4495 52.9164C20.3111 53.0559 20.2017 53.2215 20.1276 53.4036C20.0535 53.5856 20.0161 53.7805 20.0178 53.977C20.0161 54.1736 20.0535 54.3686 20.1276 54.5506C20.2017 54.7327 20.3111 54.8983 20.4495 55.0378C20.588 55.1774 20.7526 55.2882 20.9341 55.3638C21.1155 55.4394 21.3102 55.4784 21.5067 55.4784C21.7033 55.4784 21.8979 55.4394 22.0794 55.3638C22.2608 55.2882 22.4255 55.1774 22.5639 55.0378C22.7023 54.8983 22.8118 54.7327 22.8859 54.5506C22.96 54.3686 22.9973 54.1736 22.9957 53.977Z" fill="#23A8E1"/>
<path d="M21.6698 46.7582L27.1446 47.077C27.1764 47.0789 27.2082 47.0744 27.2381 47.0636C27.268 47.0528 27.2954 47.036 27.3186 47.0142C27.3418 46.9925 27.3602 46.9661 27.3729 46.9369C27.3855 46.9077 27.392 46.8763 27.392 46.8445V44.0664H23.7566C23.4869 44.0664 23.2219 44.1366 22.9875 44.2701C22.7532 44.4036 22.5577 44.5957 22.4202 44.8277L21.484 46.4066C21.4636 46.441 21.4524 46.48 21.4515 46.52C21.4506 46.5599 21.46 46.5995 21.4788 46.6347C21.4976 46.67 21.5251 46.6999 21.5587 46.7215C21.5924 46.7431 21.631 46.7556 21.6709 46.7579L21.6698 46.7582Z" fill="#23A8E1"/>
<path d="M28.7753 47.1723L38.044 47.7127C38.0923 47.7158 38.1405 47.7038 38.1817 47.6783C38.223 47.6527 38.2552 47.6149 38.274 47.5702C38.2927 47.5255 38.2971 47.4761 38.2864 47.4288C38.2757 47.3815 38.2505 47.3388 38.2144 47.3065L35.2667 44.6623C34.8391 44.2787 34.2848 44.0665 33.7103 44.0666H28.5571V46.9397C28.5571 46.9993 28.5799 47.0564 28.6208 47.0996C28.6617 47.1429 28.7175 47.1689 28.777 47.1723H28.7753Z" fill="#23A8E1"/>
</svg>
