<svg width="24" height="24" viewBox="0 0 24 24" fill="none" xmlns="http://www.w3.org/2000/svg">
<path d="M14.9167 1.275C15.5636 1.49681 16.1524 1.8615 16.6391 2.342L18.1571 3.86183C18.6381 4.34793 19.0032 4.93641 19.225 5.58333H14.9167V1.275ZM19.5 7.41667V18.4167C19.4985 19.6318 19.0152 20.7967 18.156 21.656C17.2967 22.5152 16.1318 22.9985 14.9167 23H7.58333C6.3682 22.9985 5.20326 22.5152 4.34403 21.656C3.48481 20.7967 3.00146 19.6318 3 18.4167V5.58333C3.00146 4.3682 3.48481 3.20326 4.34403 2.34403C5.20326 1.48481 6.3682 1.00146 7.58333 1L13.0833 1V5.58333C13.0833 6.06956 13.2765 6.53588 13.6203 6.8797C13.9641 7.22351 14.4304 7.41667 14.9167 7.41667H19.5ZM15.6573 16.9619C15.5866 16.8641 15.4973 16.7811 15.3944 16.7179C15.2915 16.6547 15.1772 16.6124 15.058 16.5935C14.9387 16.5746 14.8169 16.5794 14.6995 16.6077C14.5822 16.636 14.4715 16.6872 14.374 16.7584C13.7581 17.1871 13.0387 17.4432 12.2904 17.5C11.9972 17.492 11.7165 17.3799 11.4984 17.1838C11.02 16.8041 10.4297 16.5931 9.81908 16.5833C8.8022 16.6789 7.83364 17.0624 7.02692 17.6888C6.9268 17.7602 6.84206 17.851 6.77775 17.9558C6.71343 18.0606 6.67086 18.1772 6.65256 18.2988C6.63426 18.4204 6.64061 18.5444 6.67122 18.6635C6.70184 18.7826 6.7561 18.8943 6.83078 18.992C6.90545 19.0897 6.99902 19.1713 7.1059 19.2321C7.21278 19.2929 7.3308 19.3315 7.45293 19.3458C7.57506 19.36 7.6988 19.3495 7.81679 19.3149C7.93479 19.2804 8.04462 19.2224 8.13975 19.1445C8.62798 18.7621 9.20622 18.5115 9.81908 18.4167C10.0446 18.4167 10.1592 18.4882 10.4608 18.6917C10.9831 19.1042 11.6285 19.3301 12.2941 19.3333C13.4333 19.2813 14.5333 18.9015 15.4621 18.2397C15.6568 18.0958 15.7867 17.8805 15.8233 17.6411C15.8599 17.4017 15.8002 17.1575 15.6573 16.9619ZM15.8333 13.8333C15.8333 13.5902 15.7368 13.3571 15.5648 13.1852C15.3929 13.0132 15.1598 12.9167 14.9167 12.9167H7.58333C7.34022 12.9167 7.10706 13.0132 6.93515 13.1852C6.76324 13.3571 6.66667 13.5902 6.66667 13.8333C6.66667 14.0764 6.76324 14.3096 6.93515 14.4815C7.10706 14.6534 7.34022 14.75 7.58333 14.75H14.9167C15.1598 14.75 15.3929 14.6534 15.5648 14.4815C15.7368 14.3096 15.8333 14.0764 15.8333 13.8333ZM15.8333 10.1667C15.8333 9.92355 15.7368 9.69039 15.5648 9.51849C15.3929 9.34658 15.1598 9.25 14.9167 9.25H7.58333C7.34022 9.25 7.10706 9.34658 6.93515 9.51849C6.76324 9.69039 6.66667 9.92355 6.66667 10.1667C6.66667 10.4098 6.76324 10.6429 6.93515 10.8148C7.10706 10.9868 7.34022 11.0833 7.58333 11.0833H14.9167C15.1598 11.0833 15.3929 10.9868 15.5648 10.8148C15.7368 10.6429 15.8333 10.4098 15.8333 10.1667Z" fill="white"/>
</svg>
