<svg width="24" height="24" viewBox="0 0 24 24" fill="none" xmlns="http://www.w3.org/2000/svg">
<g clip-path="url(#clip0_473_51)">
<path d="M12 2.00033C14.6793 2.00914 17.2437 3.08934 19.1218 5.00023H15.9999C15.4476 5.00023 14.9999 5.44792 14.9999 6.00019C14.9999 6.55245 15.4476 7.00014 15.9999 7.00014H20.1427C21.168 6.99958 21.9991 6.16851 21.9997 5.1432V1.00033C21.9997 0.448063 21.552 0.000374387 20.9997 0.000374387C20.4475 0.000374387 19.9998 0.448063 19.9998 1.00033V3.07828C15.0831 -1.34972 7.50769 -0.953549 3.07969 3.96316C1.34682 5.88732 0.283963 8.32113 0.0503927 10.9C-0.000980739 11.4538 0.406303 11.9443 0.960067 11.9957C0.990066 11.9985 1.02021 11.9999 1.05039 12C1.55724 12.0065 1.98571 11.6261 2.03938 11.122C2.50071 5.96292 6.82034 2.00712 12 2.00033Z" fill="#1A454F" fill-opacity="0.6"/>
<path d="M22.9507 12C22.4438 11.9935 22.0154 12.3739 21.9617 12.878C21.4845 18.3722 16.6437 22.4393 11.1494 21.9621C8.77223 21.7556 6.54757 20.7047 4.87826 18.9997H8.00018C8.55244 18.9997 9.00013 18.5521 9.00013 17.9998C9.00013 17.4475 8.55244 16.9998 8.00018 16.9998H3.85731C2.83228 16.9993 2.00093 17.8298 2.00037 18.8548C2.00037 18.8554 2.00037 18.8561 2.00037 18.8568V22.9996C2.00037 23.5519 2.44806 23.9996 3.00032 23.9996C3.55258 23.9996 4.00027 23.5519 4.00027 22.9996V20.9217C8.91698 25.3497 16.4923 24.9535 20.9203 20.0368C22.6532 18.1127 23.7161 15.6789 23.9496 13.0999C24.001 12.5462 23.5937 12.0556 23.04 12.0043C23.0103 12.0015 22.9805 12.0001 22.9507 12Z" fill="#1A454F" fill-opacity="0.6"/>
</g>
<defs>
<clipPath id="clip0_473_51">
<rect width="24" height="24" fill="white"/>
</clipPath>
</defs>
</svg>
