<svg width="38" height="40" viewBox="0 0 38 40" fill="none" xmlns="http://www.w3.org/2000/svg">
<path d="M29.3548 11.2903V1.93548C29.3548 0.83871 28.4516 0 27.4194 0H1.93548C0.83871 0 0 0.903226 0 1.93548V38.0645C0 39.1613 0.903226 40 1.93548 40H27.4194C28.5161 40 29.3548 39.0968 29.3548 38.0645V24.6452C25.6774 24.6452 22.7097 21.6774 22.7097 18C22.7097 14.3226 25.6774 11.2903 29.3548 11.2903ZM6.64516 36.6452H3.35484V33.0323H6.64516V36.6452ZM13.0968 36.6452H9.80645V24.129H13.0968V36.6452ZM19.4839 36.6452H16.1935V30.5806H19.4839V36.6452ZM13.6129 21.4839C8.83871 21.4839 4.96774 17.6129 4.96774 12.8387C4.96774 8.06452 8.83871 4.19355 13.6129 4.19355V12.8387H22.2581C22.2581 17.6129 18.3871 21.4839 13.6129 21.4839ZM25.9355 26V36.6452H22.6452V26H25.9355ZM15.6774 10.7742V2.06452C20.4516 2.06452 24.3226 5.93548 24.3226 10.7097H15.6774V10.7742Z" fill="#F8F9FA"/>
<path d="M34.7097 18C34.7097 20.9677 32.3226 23.3548 29.3548 23.3548C26.3871 23.3548 24 20.9677 24 18C24 15.0323 26.3871 12.6452 29.3548 12.6452C32.3226 12.5806 34.7097 15.0323 34.7097 18Z" fill="#F8F9FA"/>
<path d="M37.8711 24.2581L35.613 26.5161L32.7743 23.6774C33.6775 23.0968 34.5162 22.3226 35.0324 21.4194L37.8711 24.2581Z" fill="#F8F9FA"/>
</svg>
