<svg width="24" height="24" viewBox="0 0 24 24" fill="none" xmlns="http://www.w3.org/2000/svg">
<path d="M2.28699 23.6057L6.80554 19.0739C8.66833 20.536 10.9687 21.3294 13.3368 21.3265C15.4458 21.3265 17.5074 20.7011 19.2609 19.5294C21.0145 18.3577 22.3812 16.6923 23.1883 14.7439C23.9954 12.7954 24.2065 10.6514 23.7951 8.58294C23.3837 6.51448 22.3681 4.61447 20.8768 3.12319C19.3855 1.63191 17.4855 0.616339 15.4171 0.204896C13.3486 -0.206547 11.2046 0.00462018 9.25613 0.811695C7.30767 1.61877 5.64231 2.9855 4.47062 4.73906C3.29893 6.49262 2.67354 8.55425 2.67354 10.6632C2.67059 13.0313 3.46397 15.3317 4.92615 17.1945L0.394274 21.713C0.269342 21.8369 0.170179 21.9843 0.10251 22.1468C0.0348396 22.3092 1.90735e-06 22.4834 1.90735e-06 22.6594C1.90735e-06 22.8353 0.0348396 23.0095 0.10251 23.172C0.170179 23.3344 0.269342 23.4818 0.394274 23.6057C0.518183 23.7307 0.665604 23.8298 0.82803 23.8975C0.990456 23.9652 1.16467 24 1.34063 24C1.51659 24 1.69081 23.9652 1.85324 23.8975C2.01566 23.8298 2.16308 23.7307 2.28699 23.6057ZM13.3368 2.66581C14.9185 2.66581 16.4647 3.13485 17.7799 4.01362C19.0951 4.89239 20.1201 6.14142 20.7254 7.60275C21.3307 9.06409 21.4891 10.6721 21.1805 12.2235C20.8719 13.7748 20.1103 15.1998 18.9918 16.3183C17.8733 17.4367 16.4483 18.1984 14.897 18.507C13.3456 18.8156 11.7376 18.6572 10.2763 18.0519C8.81495 17.4466 7.56592 16.4215 6.68715 15.1064C5.80839 13.7912 5.33934 12.245 5.33934 10.6632C5.33934 8.54219 6.18193 6.50801 7.68173 5.0082C9.18154 3.5084 11.2157 2.66581 13.3368 2.66581Z" fill="white"/>
</svg>
