<svg width="40" height="40" viewBox="0 0 40 40" fill="none" xmlns="http://www.w3.org/2000/svg">
<g clip-path="url(#clip0_194_635)">
<path d="M2.6784 30C3.00644 30.5693 3.44349 31.0684 3.96454 31.4687C4.4856 31.869 5.08044 32.1627 5.71508 32.333C6.34971 32.5033 7.01168 32.5468 7.66314 32.461C8.3146 32.3753 8.94277 32.162 9.51174 31.8333L10.2534 31.405C11.6534 32.6028 13.2626 33.5317 15.0001 34.145V35C15.0001 36.3261 15.5269 37.5978 16.4645 38.5355C17.4022 39.4732 18.674 40 20.0001 40C21.3262 40 22.5979 39.4732 23.5356 38.5355C24.4733 37.5978 25.0001 36.3261 25.0001 35V34.145C26.7378 33.5307 28.347 32.6007 29.7467 31.4016L30.4917 31.8317C31.641 32.4947 33.0066 32.674 34.2881 32.3302C35.5696 31.9864 36.662 31.1476 37.3251 29.9983C37.9881 28.849 38.1674 27.4835 37.8236 26.202C37.4798 24.9205 36.641 23.828 35.4917 23.165L34.7517 22.7383C35.0849 20.9257 35.0849 19.0676 34.7517 17.255L35.4917 16.8283C36.0608 16.5 36.5596 16.0628 36.9597 15.5418C37.3598 15.0207 37.6534 14.4259 37.8236 13.7913C37.9939 13.1568 38.0375 12.495 37.9519 11.8436C37.8664 11.1922 37.6534 10.564 37.3251 9.99498C36.9968 9.42592 36.5596 8.9271 36.0385 8.52699C35.5174 8.12688 34.9226 7.83333 34.2881 7.66309C33.6536 7.49285 32.9917 7.44925 32.3403 7.5348C31.689 7.62034 31.0608 7.83335 30.4917 8.16165L29.7501 8.58998C28.3487 7.3936 26.7383 6.46638 25.0001 5.85498V4.99998C25.0001 3.6739 24.4733 2.40213 23.5356 1.46445C22.5979 0.526769 21.3262 -1.52588e-05 20.0001 -1.52588e-05C18.674 -1.52588e-05 17.4022 0.526769 16.4645 1.46445C15.5269 2.40213 15.0001 3.6739 15.0001 4.99998V5.85498C13.2624 6.46926 11.6532 7.39932 10.2534 8.59832L9.5084 8.16665C8.35913 7.50361 6.99354 7.32427 5.71204 7.66809C4.43054 8.0119 3.33811 8.85071 2.67507 9.99998C2.01203 11.1493 1.83269 12.5148 2.17651 13.7963C2.52033 15.0778 3.35913 16.1703 4.5084 16.8333L5.2484 17.26C4.91525 19.0726 4.91525 20.9307 5.2484 22.7433L4.5084 23.17C3.36206 23.8349 2.52588 24.927 2.1829 26.2071C1.83992 27.4871 2.01809 28.851 2.6784 30ZM20.0001 13.3333C21.3186 13.3333 22.6075 13.7243 23.7039 14.4569C24.8002 15.1894 25.6547 16.2306 26.1593 17.4488C26.6639 18.6669 26.7959 20.0074 26.5386 21.3006C26.2814 22.5938 25.6465 23.7817 24.7141 24.714C23.7818 25.6464 22.5939 26.2813 21.3007 26.5386C20.0075 26.7958 18.667 26.6638 17.4488 26.1592C16.2307 25.6546 15.1895 24.8001 14.4569 23.7038C13.7244 22.6075 13.3334 21.3185 13.3334 20C13.3334 18.2319 14.0358 16.5362 15.286 15.2859C16.5363 14.0357 18.232 13.3333 20.0001 13.3333Z" fill="#F8F9FA"/>
</g>
<defs>
<clipPath id="clip0_194_635">
<rect width="40" height="40" fill="white"/>
</clipPath>
</defs>
</svg>
