<svg width="27" height="32" viewBox="0 0 27 32" fill="none" xmlns="http://www.w3.org/2000/svg">
<path d="M19.9058 18.0558C19.468 16.9443 18.3565 16.1696 17.0766 16.1696H13.9779C13.1022 16.1696 12.3948 15.4623 12.3948 14.5866V14.4519C12.3948 12.431 12.9674 10.4101 14.2473 8.86072C15.1904 7.74923 15.662 6.23356 15.4262 4.61684C15.0894 2.22544 13.1022 0.339271 10.7108 0.0361364C7.44364 -0.334361 4.64806 2.19176 4.64806 5.4252C4.64806 6.67142 5.05224 7.78291 5.75956 8.69231C6.9721 10.2754 7.74678 12.1952 7.74678 14.1824V14.5529C7.74678 15.4286 7.03946 16.136 6.16374 16.136H3.06503C1.38095 16.136 0 17.5169 0 19.201V22.4681H13.0348C14.3147 19.9083 16.9082 18.1232 19.9058 18.0558Z" fill="white"/>
<path d="M1.27991 24.489V26.5436C1.27991 26.9814 1.65041 27.3519 2.08827 27.3519H12.3948C12.3275 26.8804 12.2601 26.4088 12.2601 25.9373C12.2601 25.4658 12.2938 24.9605 12.3948 24.5227H1.27991V24.489Z" fill="white"/>
<path d="M20.1417 19.8073C16.7735 19.8073 14.0453 22.5355 14.0453 25.9036C14.0453 29.2718 16.7735 32 20.1417 32C23.5098 32 26.238 29.2718 26.238 25.9036C26.238 22.5355 23.5098 19.8073 20.1417 19.8073ZM22.7015 27.2172C23.0383 27.554 23.0383 28.1266 22.7015 28.4634C22.5331 28.6318 22.2973 28.7329 22.0615 28.7329C21.8257 28.7329 21.6237 28.6318 21.4216 28.4634L20.108 27.1498L18.8281 28.4634C18.6597 28.6318 18.4239 28.7329 18.1881 28.7329C17.9524 28.7329 17.7503 28.6318 17.5482 28.4634C17.2114 28.1266 17.2114 27.554 17.5482 27.2172L18.8618 25.9036L17.5482 24.59C17.2114 24.2532 17.2114 23.6806 17.5482 23.3438C17.885 23.007 18.4576 23.007 18.7944 23.3438L20.108 24.6574L21.4216 23.3438C21.7584 23.007 22.331 23.007 22.6678 23.3438C23.0046 23.6806 23.0046 24.2532 22.6678 24.59L21.3542 25.9036L22.7015 27.2172Z" fill="#E74C3C"/>
</svg>
