<svg width="27" height="32" viewBox="0 0 27 32" fill="none" xmlns="http://www.w3.org/2000/svg">
<path d="M19.9058 18.0558C19.468 16.9443 18.3565 16.1696 17.0766 16.1696H13.9779C13.1022 16.1696 12.3948 15.4623 12.3948 14.5866V14.4519C12.3948 12.431 12.9674 10.4101 14.2473 8.86072C15.1904 7.74923 15.662 6.23356 15.4262 4.61684C15.0894 2.22544 13.1022 0.339271 10.7108 0.0361364C7.44364 -0.334361 4.64806 2.19176 4.64806 5.4252C4.64806 6.67142 5.05224 7.78291 5.75956 8.69231C6.9721 10.2754 7.74678 12.1952 7.74678 14.1824V14.5529C7.74678 15.4286 7.03946 16.136 6.16374 16.136H3.06503C1.38095 16.136 0 17.5169 0 19.201V22.4681H13.0348C14.3147 19.9083 16.9082 18.1232 19.9058 18.0558Z" fill="white"/>
<path d="M1.27991 24.489V26.5436C1.27991 26.9814 1.65041 27.3519 2.08827 27.3519H12.3948C12.3275 26.8804 12.2601 26.4088 12.2601 25.9373C12.2601 25.4658 12.2938 24.9605 12.3948 24.5227H1.27991V24.489Z" fill="white"/>
<path d="M20.1417 19.8073C16.7735 19.8073 14.0453 22.5355 14.0453 25.9036C14.0453 29.2718 16.7735 32 20.1417 32C23.5098 32 26.238 29.2718 26.238 25.9036C26.238 22.5355 23.5098 19.8073 20.1417 19.8073ZM22.8699 25.2637L19.9059 28.2277C19.7375 28.3961 19.5354 28.4634 19.2996 28.4634C19.0639 28.4634 18.8618 28.3624 18.6597 28.194L17.1777 26.712C16.8409 26.3752 16.8409 25.8026 17.1777 25.4658C17.5145 25.1289 18.0871 25.1289 18.4239 25.4658L19.2659 26.3078L21.59 23.9838C21.9268 23.647 22.4994 23.647 22.8362 23.9838C23.2404 24.3543 23.2404 24.9269 22.8699 25.2637Z" fill="#1BB55C"/>
</svg>
