<svg width="48" height="40" viewBox="0 0 48 40" fill="none" xmlns="http://www.w3.org/2000/svg">
<path fill-rule="evenodd" clip-rule="evenodd" d="M38.0068 16.8737C43.5768 16.8737 48 21.2969 48 26.8669V33.4198C44.5597 34.5666 41.1195 35.2218 37.6792 35.2218V29.3242C37.6792 24.901 35.7133 20.9693 32.4369 18.5119C34.0751 17.3652 36.041 16.8737 38.0068 16.8737ZM9.99317 16.8737C11.959 16.8737 13.9249 17.3652 15.5631 18.5119C12.4505 20.9693 10.3208 24.901 10.3208 29.3242V35.2218C6.88055 35.2218 3.44027 34.7304 0 33.4198V26.8669C0 21.2969 4.58703 16.8737 9.99317 16.8737ZM24.0819 17.0375C30.7986 17.0375 36.2048 22.6075 36.2048 29.3242V37.3515C27.686 40.3003 19.6587 40.3003 11.7952 37.3515V29.3242C11.7952 22.6075 17.3652 17.0375 24.0819 17.0375ZM24.0819 0C28.5051 0 32.273 3.6041 32.273 8.19113C32.273 12.7782 28.5051 16.3823 24.0819 16.3823C19.4949 16.3823 15.8908 12.7782 15.8908 8.19113C15.8908 3.6041 19.4949 0 24.0819 0ZM9.99317 2.78498C11.959 2.78498 13.5973 3.6041 14.9079 4.91468C13.9249 7.53584 14.2526 10.6485 15.727 13.1058C14.4164 15.0717 12.4505 16.2184 9.99317 16.2184C6.22526 16.2184 3.27645 13.2696 3.27645 9.50171C3.27645 5.89761 6.22526 2.78498 9.99317 2.78498ZM38.0068 2.78498C41.7747 2.78498 44.7236 5.89761 44.7236 9.50171C44.7236 13.2696 41.7747 16.2184 38.0068 16.2184C35.7133 16.2184 33.5836 15.0717 32.4369 13.1058C33.9113 10.6485 34.2389 7.53584 33.256 4.91468C34.4027 3.6041 36.2048 2.78498 38.0068 2.78498Z" fill="#23A8E1"/>
</svg>
