<svg width="40" height="33" viewBox="0 0 40 33" fill="none" xmlns="http://www.w3.org/2000/svg">
<path fill-rule="evenodd" clip-rule="evenodd" d="M31.6724 14.0614C36.314 14.0614 40 17.7474 40 22.3891V27.8498C37.1331 28.8055 34.2662 29.3515 31.3993 29.3515V24.4369C31.3993 20.7509 29.7611 17.4744 27.0307 15.4266C28.3959 14.471 30.0341 14.0614 31.6724 14.0614ZM8.32765 14.0614C9.96587 14.0614 11.6041 14.471 12.9693 15.4266C10.3754 17.4744 8.60068 20.7509 8.60068 24.4369V29.3515C5.73379 29.3515 2.86689 28.942 0 27.8498V22.3891C0 17.7474 3.82253 14.0614 8.32765 14.0614ZM20.0683 14.198C25.6655 14.198 30.1707 18.8396 30.1707 24.4369V31.1263C23.0717 33.5836 16.3823 33.5836 9.82935 31.1263V24.4369C9.82935 18.8396 14.471 14.198 20.0683 14.198ZM20.0683 0C23.7543 0 26.8942 3.00341 26.8942 6.82594C26.8942 10.6485 23.7543 13.6519 20.0683 13.6519C16.2457 13.6519 13.2423 10.6485 13.2423 6.82594C13.2423 3.00341 16.2457 0 20.0683 0ZM8.32765 2.32082C9.96587 2.32082 11.3311 3.00341 12.4232 4.09556C11.6041 6.27986 11.8771 8.87372 13.1058 10.9215C12.0137 12.5597 10.3754 13.5154 8.32765 13.5154C5.18771 13.5154 2.73038 11.058 2.73038 7.91809C2.73038 4.91468 5.18771 2.32082 8.32765 2.32082ZM31.6724 2.32082C34.8123 2.32082 37.2696 4.91468 37.2696 7.91809C37.2696 11.058 34.8123 13.5154 31.6724 13.5154C29.7611 13.5154 27.9863 12.5597 27.0307 10.9215C28.2594 8.87372 28.5324 6.27986 27.7133 4.09556C28.6689 3.00341 30.1707 2.32082 31.6724 2.32082Z" fill="#F8F9FA"/>
</svg>
